<mxfile host="app.diagrams.net" modified="2023-06-28T21:03:57.786Z" agent="Mozilla/5.0 (Macintosh; Intel Mac OS X 10_15_7) AppleWebKit/537.36 (KHTML, like Gecko) Chrome/114.0.0.0 Safari/537.36" etag="Vqr_qO7BsFifvb2a3VoA" version="21.5.2" type="github">
  <diagram name="Page-1" id="u3HGcEK10pWyirEL2DL3">
    <mxGraphModel dx="1122" dy="724" grid="1" gridSize="10" guides="1" tooltips="1" connect="1" arrows="1" fold="1" page="1" pageScale="1" pageWidth="850" pageHeight="1100" math="0" shadow="0">
      <root>
        <mxCell id="0" />
        <mxCell id="1" parent="0" />
        <mxCell id="VpcK7lyo6br8hOPn_edR-1" value="User" style="text;html=1;align=center;verticalAlign=middle;resizable=0;points=[];autosize=1;strokeColor=none;fillColor=none;" vertex="1" parent="1">
          <mxGeometry x="55" y="38" width="50" height="30" as="geometry" />
        </mxCell>
        <mxCell id="VpcK7lyo6br8hOPn_edR-2" value="Organisation" style="text;html=1;align=center;verticalAlign=middle;resizable=0;points=[];autosize=1;strokeColor=none;fillColor=none;" vertex="1" parent="1">
          <mxGeometry x="315" y="38" width="90" height="30" as="geometry" />
        </mxCell>
        <mxCell id="VpcK7lyo6br8hOPn_edR-3" value="Voting pol" style="text;html=1;align=center;verticalAlign=middle;resizable=0;points=[];autosize=1;strokeColor=none;fillColor=none;" vertex="1" parent="1">
          <mxGeometry x="590" y="38" width="80" height="30" as="geometry" />
        </mxCell>
        <mxCell id="VpcK7lyo6br8hOPn_edR-4" value="Normal user" style="shape=umlActor;verticalLabelPosition=bottom;verticalAlign=top;html=1;outlineConnect=0;" vertex="1" parent="1">
          <mxGeometry x="60" y="80" width="30" height="60" as="geometry" />
        </mxCell>
        <mxCell id="VpcK7lyo6br8hOPn_edR-5" value="Member" style="shape=umlActor;verticalLabelPosition=bottom;verticalAlign=top;html=1;outlineConnect=0;" vertex="1" parent="1">
          <mxGeometry x="320" y="90" width="30" height="60" as="geometry" />
        </mxCell>
        <mxCell id="VpcK7lyo6br8hOPn_edR-7" value="Admin" style="shape=umlActor;verticalLabelPosition=bottom;verticalAlign=top;html=1;outlineConnect=0;" vertex="1" parent="1">
          <mxGeometry x="375" y="90" width="35" height="60" as="geometry" />
        </mxCell>
        <mxCell id="VpcK7lyo6br8hOPn_edR-11" value="Pol" style="rounded=0;whiteSpace=wrap;html=1;" vertex="1" parent="1">
          <mxGeometry x="580" y="80" width="120" height="60" as="geometry" />
        </mxCell>
        <mxCell id="VpcK7lyo6br8hOPn_edR-13" value="" style="endArrow=classic;html=1;rounded=0;exitX=1;exitY=0.3333333333333333;exitDx=0;exitDy=0;exitPerimeter=0;entryX=0;entryY=0.5;entryDx=0;entryDy=0;" edge="1" parent="1" source="VpcK7lyo6br8hOPn_edR-7" target="VpcK7lyo6br8hOPn_edR-11">
          <mxGeometry width="50" height="50" relative="1" as="geometry">
            <mxPoint x="430" y="360" as="sourcePoint" />
            <mxPoint x="480" y="310" as="targetPoint" />
          </mxGeometry>
        </mxCell>
        <mxCell id="VpcK7lyo6br8hOPn_edR-14" value="- Create Pool&lt;br&gt;-- manage votes" style="text;html=1;align=center;verticalAlign=middle;resizable=0;points=[];autosize=1;strokeColor=none;fillColor=none;" vertex="1" parent="1">
          <mxGeometry x="425" y="83" width="110" height="40" as="geometry" />
        </mxCell>
        <mxCell id="VpcK7lyo6br8hOPn_edR-15" value="" style="endArrow=classic;html=1;rounded=0;entryX=0.5;entryY=1;entryDx=0;entryDy=0;" edge="1" parent="1" target="VpcK7lyo6br8hOPn_edR-11">
          <mxGeometry width="50" height="50" relative="1" as="geometry">
            <mxPoint x="330" y="180" as="sourcePoint" />
            <mxPoint x="480" y="310" as="targetPoint" />
            <Array as="points">
              <mxPoint x="330" y="240" />
              <mxPoint x="640" y="240" />
            </Array>
          </mxGeometry>
        </mxCell>
      </root>
    </mxGraphModel>
  </diagram>
</mxfile>
